<svg width="41" height="41" viewBox="0 0 41 41" fill="none" xmlns="http://www.w3.org/2000/svg">
<circle cx="20.5" cy="20.5" r="20.5" fill="white"/>
<path fill-rule="evenodd" clip-rule="evenodd" d="M27.2165 17.2293C26.6817 19.557 25.079 20.582 23.9067 21.333C22.6935 22.1083 22.2742 22.4326 22.2742 23.5303C22.2742 23.9751 22.0975 24.4017 21.7829 24.7163C21.4684 25.0308 21.0417 25.2075 20.5969 25.2075C20.1521 25.2075 19.7254 25.0308 19.4109 24.7163C19.0963 24.4017 18.9196 23.9751 18.9196 23.5303C18.9196 20.5391 20.7572 19.365 22.099 18.5059C23.165 17.8257 23.7297 17.425 23.9477 16.4783C24.136 15.6564 23.9869 14.9296 23.5005 14.3183C22.8631 13.5188 21.7244 13.0007 20.5969 13.0007C18.7743 13.0007 17.2908 14.486 17.2908 16.3087C17.2908 16.7535 17.1141 17.1801 16.7996 17.4947C16.485 17.8092 16.0584 17.986 15.6135 17.986C15.1687 17.986 14.7421 17.8092 14.4275 17.4947C14.113 17.1801 13.9363 16.7535 13.9363 16.3087C13.9382 14.5428 14.6406 12.8498 15.8893 11.6011C17.138 10.3524 18.831 9.65002 20.5969 9.64805C22.7382 9.64805 24.8553 10.6358 26.1245 12.2292C27.2464 13.6381 27.634 15.4141 27.2165 17.2293ZM20.6267 31.652C20.0336 31.652 19.4648 31.4164 19.0454 30.997C18.626 30.5776 18.3904 30.0088 18.3904 29.4156C18.3904 28.8225 18.626 28.2537 19.0454 27.8343C19.4648 27.4149 20.0336 27.1793 20.6267 27.1793C21.2198 27.1793 21.7887 27.4149 22.2081 27.8343C22.6275 28.2537 22.8631 28.8225 22.8631 29.4156C22.8631 30.0088 22.6275 30.5776 22.2081 30.997C21.7887 31.4164 21.2198 31.652 20.6267 31.652ZM20.5 0C9.17655 0 0 9.17841 0 20.5C0 31.8235 9.17655 41 20.5 41C31.8216 41 41 31.8235 41 20.5C41 9.17841 31.8216 0 20.5 0Z" fill="#1F41BB"/>
</svg>
