<svg width="71" height="71" viewBox="0 0 71 71" fill="none" xmlns="http://www.w3.org/2000/svg">
<circle cx="35.5" cy="35.5" r="35.5" fill="#1F41BB"/>
<path fill-rule="evenodd" clip-rule="evenodd" d="M51.2497 33.8H38.4164V20.9667C38.4164 20.3832 38.1846 19.8236 37.772 19.411C37.3594 18.9984 36.7998 18.7667 36.2164 18.7667C35.6329 18.7667 35.0733 18.9984 34.6607 19.411C34.2481 19.8236 34.0164 20.3832 34.0164 20.9667V33.8H21.183C20.5996 33.8 20.04 34.0318 19.6274 34.4444C19.2148 34.8569 18.983 35.4165 18.983 36C18.983 36.5835 19.2148 37.143 19.6274 37.5556C20.04 37.9682 20.5996 38.2 21.183 38.2H34.0164V51.0333C34.0164 51.6168 34.2481 52.1764 34.6607 52.589C35.0733 53.0015 35.6329 53.2333 36.2164 53.2333C36.7998 53.2333 37.3594 53.0015 37.772 52.589C38.1846 52.1764 38.4164 51.6168 38.4164 51.0333V38.2H51.2497C51.8332 38.2 52.3928 37.9682 52.8053 37.5556C53.2179 37.143 53.4497 36.5835 53.4497 36C53.4497 35.4165 53.2179 34.8569 52.8053 34.4444C52.3928 34.0318 51.8332 33.8 51.2497 33.8" fill="white"/>
</svg>
