<svg width="20" height="18" viewBox="0 0 20 18" fill="none" xmlns="http://www.w3.org/2000/svg">
<path fill-rule="evenodd" clip-rule="evenodd" d="M18.1319 7.50641H4.0959L9.5469 2.05541C9.65982 1.94431 9.74962 1.81196 9.81114 1.66598C9.87265 1.52001 9.90465 1.36329 9.9053 1.20489C9.90594 1.04648 9.87522 0.889511 9.81489 0.743038C9.75457 0.596564 9.66585 0.463484 9.55383 0.351472C9.44182 0.23946 9.30874 0.150734 9.16227 0.0904118C9.0158 0.0300896 8.85883 -0.00063507 8.70042 9.94903e-06C8.54201 0.000654968 8.3853 0.0326569 8.23932 0.09417C8.09335 0.155683 7.96099 0.24549 7.8499 0.35841L0.349896 7.85841C0.346896 7.86041 0.345896 7.86441 0.342896 7.86741C0.17838 8.0353 0.0667955 8.24782 0.021996 8.47857C-0.0228035 8.70932 0.00115462 8.94815 0.0908964 9.16541C0.150896 9.30841 0.235896 9.43541 0.342896 9.54541L0.349896 9.55541L7.8499 17.0554C8.0849 17.2894 8.3919 17.4054 8.6979 17.4054C8.93517 17.4054 9.16711 17.335 9.3644 17.2033C9.5617 17.0715 9.7155 16.8841 9.80636 16.6649C9.89723 16.4458 9.92107 16.2046 9.87489 15.9718C9.82871 15.7391 9.71457 15.5253 9.5469 15.3574L4.0969 9.90641H18.1329C18.4512 9.90641 18.7564 9.77998 18.9814 9.55494C19.2065 9.32989 19.3329 9.02467 19.3329 8.70641C19.3329 8.38815 19.2065 8.08293 18.9814 7.85788C18.7564 7.63284 18.4512 7.50641 18.1329 7.50641" fill="#1F41BB"/>
</svg>
